<?xml version="1.0" encoding="UTF-8"?><svg id="Layer_2" xmlns="http://www.w3.org/2000/svg" viewBox="0 0 370.96 284.27"><defs><style>.cls-1{fill:#fff;}.cls-1,.cls-2{fill-rule:evenodd;}.cls-2{fill:#b399c8;}.cls-3{fill:#8967aa;}.cls-4{fill:none;stroke:#000;stroke-linecap:round;stroke-miterlimit:28.44;stroke-width:14.22px;}</style></defs><g id="Layer_1-2"><path class="cls-1" d="M133.41,120.82c11,2.81,19.06,10.82,23.23,23.13,2.28,6.71,2.28,16.14,0,22.86-3.95,11.63-10.95,19.24-21.08,22.9-7.49,2.72-14.47,2.2-22.38-1.64-22.02-10.67-25.98-43.45-7.29-60.34,7.69-6.95,17.6-9.44,27.52-6.91h0ZM251.99,120.78c5.16,1.32,7.8,2.67,12.17,6.22,11.09,9,15.22,25.34,11.45,38.95-2.35,8.47-8.57,17-15.25,20.91-7.77,4.55-17.24,6.07-25.74,2.59-13.89-5.67-21.87-19.23-21.87-33.83,0-7.79.84-11.36,4.33-18.4,2.63-5.3,9.14-11.83,14.21-14.25,6.78-3.23,13.76-3.97,20.71-2.2h0Z"/><path class="cls-2" d="M128.89,8.17c-23.92,5-47.79,12.44-63.88,19.94-1.05.48-1.82.82-2.52,1.27-2.28,1.44-3.8,4.05-11.43,16.55-10.24,16.78-21.12,39.27-26.52,54.83-.82,2.4-2.01,5.67-2.62,7.27-1.71,4.47-7.3,24.98-8.76,32.18-1.12,5.51-2.25,12.53-4.56,28.42-1.23,8.43-1.74,23.04-1.38,39.33.45,20.3.73,23.59,2.18,24.7,2.24,1.71,13.55,9.29,18.56,12.44,19.67,12.37,40.8,22.19,65.4,30.41,2.56.85,4.87,1.55,5.13,1.55,1.57,0,14.05-18.65,14.67-19.57l.06-.09,13.26-20.09c4.32,1.21,8.6,2.33,12.53,3.29,24.61,5.97,56.87,6.68,84.11,1.88,7.48-1.41,14.91-3.13,22.24-5.16l15,20.14,15.25,19.61s0,.53,5.91-1.55c12.34-5.32,51.24-23.96,60.03-29.53,5.85-3.7,18.08-11.94,19.55-13.16,1.4-1.17,1.47-1.47,2.09-9.44,1.23-15.84.65-43.95-1.15-55.82-.54-3.63-1.08-7.26-1.6-10.89-.71-4.8-1.51-9.58-2.39-14.35-1.38-7.28-7.43-29.85-9.34-34.82-.62-1.61-1.79-4.84-2.6-7.18-6.64-19.07-19.56-44.44-33.31-65.46-1.24-1.9-2.02-3.13-3.02-4.12-1.94-1.93-4.74-3.02-13.48-6.54-15.77-6.36-31.97-11.19-51.9-15.48-2.78-.6-5.9-1.22-6.92-1.38-1.11-.17-2.21.39-2.72,1.39l-2.45,4.83c-1.62,3.17-3.17,6.37-4.64,9.6l-.43.98c-.54,1.24-1.84,1.98-3.19,1.8-23.28-3.11-51.11-3.31-73.01-.52-3.47.45-6.36.74-6.4.65-.06-.09-2.22-4.4-4.81-9.59s-4.98-9.42-5.3-9.39c-.32.02-2.86.51-5.64,1.1h0ZM156.64,143.91c-4.18-12.3-12.23-20.31-23.23-23.13-9.91-2.53-19.82-.04-27.52,6.91-18.68,16.9-14.72,49.66,7.3,60.34,7.91,3.84,14.88,4.34,22.37,1.64,10.13-3.68,17.13-11.29,21.08-22.91,2.28-6.72,2.28-16.14,0-22.86ZM264.17,126.97c-4.37-3.56-7.01-4.9-12.17-6.22-6.95-1.78-13.93-1.03-20.7,2.2-5.07,2.42-11.59,8.95-14.22,14.24-3.48,7.04-4.32,10.61-4.32,18.4,0,14.61,7.99,28.16,21.87,33.83,8.5,3.48,17.98,1.96,25.74-2.59,6.68-3.91,12.91-12.44,15.25-20.91,3.77-13.62-.36-29.96-11.45-38.96Z"/><path class="cls-3" d="M117.33,234.63c4.32,1.21,17.76,5.04,21.69,5.99,24.6,5.97,56.86,6.68,84.1,1.88,7.48-1.4,14.91-3.13,22.24-5.16l15,20.14,15.25,19.61s0,.52,5.91-1.56c12.34-5.32,51.25-23.96,60.03-29.53,5.85-3.71,18.08-11.95,19.56-13.16,1.4-1.17,1.46-1.48,2.08-9.45,1.24-15.84.65-43.95-1.15-55.81-.28-1.91-1.01-6.81-1.6-10.9-.71-4.8-1.51-9.58-2.39-14.35-1.38-7.27-7.43-29.85-9.34-34.82-.62-1.61-1.78-4.84-2.6-7.18-5.83-16.78-16.53-38.44-28.39-57.71-4.48-7.27-4.64-8.86-6.23,0-7.52,42.05-20.64,74.72-36.65,100.12,2.55,7.49,2.81,15.56.77,23.2-2.35,8.47-8.56,17-15.25,20.91-7.77,4.54-17.23,6.07-25.74,2.59l-.38-.16c-41.83,34.52-96.8,38.57-116.92,40.78-9.63,1.05-15.17.97,0,4.55Z"/><path class="cls-4" d="M113.19,257.48s-13.08,19.61-14.7,19.61c-.26,0-2.57-.7-5.13-1.56-24.6-8.21-45.72-18.03-65.41-30.41-5.01-3.14-16.31-10.73-18.56-12.44-1.44-1.1-1.72-4.39-2.17-24.69-.36-16.3.15-30.9,1.38-39.34,2.31-15.89,3.43-22.9,4.56-28.41,1.46-7.2,7.05-27.71,8.76-32.18.62-1.61,1.8-4.88,2.63-7.27,5.4-15.56,16.28-38.06,26.52-54.83,9.98-16.37,9.51-15.77,13.94-17.83,16.09-7.49,39.96-14.93,63.88-19.93,2.77-.58,5.32-1.07,5.64-1.1s2.71,4.2,5.3,9.39l4.81,9.59c.05.09,2.94-.21,6.41-.65,21.9-2.79,49.73-2.6,73.01.52h0c1.34.18,2.64-.56,3.19-1.8l.43-.99c.74-1.7,2.83-6.02,4.64-9.6l2.45-4.82c.51-1,1.6-1.57,2.72-1.39h0c1.02.16,4.14.78,6.92,1.38,19.93,4.29,36.12,9.12,51.9,15.48,13.24,5.33,12.84,5.08,16.5,10.67,13.76,21.01,26.67,46.39,33.31,65.46.81,2.35,1.98,5.57,2.6,7.18,1.91,4.97,7.96,27.53,9.34,34.81.72,3.8,1.79,10.26,2.39,14.36.59,4.09,1.31,9,1.6,10.89,1.81,11.86,2.38,39.96,1.15,55.81-.62,7.97-.69,8.28-2.09,9.44-1.47,1.22-13.7,9.46-19.56,13.16-8.78,5.58-47.69,24.21-60.02,29.53-1.36.62-2.76,1.14-4.2,1.56h0c-1.13.3-2.12-.52-2.84-1.44l-14.13-18.17M96.3,227.06c7.41,3.76,27.72,9.93,42.71,13.56,24.61,5.97,56.87,6.68,84.11,1.88,14.79-2.61,41.17-9.97,52.5-15.44M133.4,120.82c11.01,2.81,19.06,10.82,23.23,23.13,2.28,6.71,2.28,16.14,0,22.86-3.95,11.63-10.95,19.24-21.08,22.9-7.49,2.72-14.46,2.21-22.37-1.62-22.02-10.68-25.98-43.45-7.3-60.34,7.69-6.95,17.6-9.44,27.52-6.91h0ZM251.99,120.78c5.16,1.32,7.8,2.67,12.17,6.22,11.09,9,15.22,25.34,11.45,38.95-2.35,8.47-8.57,17-15.25,20.91-7.77,4.55-17.24,6.07-25.74,2.59-13.88-5.67-21.87-19.23-21.87-33.83,0-7.79.83-11.36,4.32-18.4,2.63-5.3,9.14-11.83,14.21-14.25,6.78-3.23,13.76-3.97,20.71-2.2h0Z"/></g></svg>