<?xml version="1.0" encoding="UTF-8"?><svg id="Layer_2" xmlns="http://www.w3.org/2000/svg" viewBox="0 0 473.72 472.06"><defs><style>.cls-1{fill:#1e95c3;}.cls-2{fill:#4dc2e6;}.cls-3{fill:#48c0e5;}.cls-4{fill:#60b7d8;}.cls-5{fill:#56bfe8;}.cls-6{fill:#1792c2;}.cls-7{fill:#34ace8;}.cls-8{fill:#1c94c3;}.cls-9{fill:#0d8dbf;}.cls-10{fill:#36ade8;}.cls-11{fill:#59b4d7;}.cls-12{fill:#56b2d6;}.cls-13{fill:#53c4e7;}</style></defs><g id="Layer_2-2"><g id="Layer_1-2"><path class="cls-12" d="M321.83,389.03l-84.5,83.03c-37.57-35.24-73.99-71.71-110.5-108.03,1.3-2.02,2.52,2.46,4.48,2,2.39-.57,2.29-14.06,7.54-11.58,1.14.54,2.19,3.48,3.46,4.6,1.47,1.29,3.9,1.61,4.97,3.03,3.21,4.25-1.35,5.84,8.54,7.47,13.26,14.94,29.51,27.07,44.01,40.48,12.69,11.74,24.22,24.66,37.36,35.92,15.83-16.07,32.12-31.57,48.64-46.92,11.39-10.59,24.53-21.02,35.97-31.51,3.08-2.83,7.49-10.14,12.1-12.93s6.04,1.45,6.93.44c1.89-2.16-3.24-12.32,11.28-8.77,10.51,2.57-2.47,5.24-2.83,5.73-.97,1.32-.4,5.66-2.43,8.57-5.78,8.29-21.28,17.85-25.02,28.48h0Z"/><path class="cls-4" d="M410.83,173.03c20.55,20.6,41.67,40.68,62.06,61.46l.83,2.83-151.89,151.71c3.74-10.62,19.24-20.19,25.02-28.48,2.03-2.91,1.46-7.25,2.43-8.57.35-.48,13.34-3.16,2.83-5.73-14.53-3.55-9.39,6.61-11.28,8.77-.89,1.02-2.42-3.16-6.93-.44s-9.02,10.1-12.1,12.93c-11.43,10.49-24.58,20.92-35.97,31.51l161.92-162.64-44.92-45.36c-1.44-2.22-5.12-10.31-6.53-11.97-1.57-1.85-10.12-5.22-9.43-9.54.83-5.25,8.58,1.87,8.95,1.52,1.41-1.31-.76-7.05,7.98.52,1.32,1.14,3.59,9.69,7.03,1.47h0Z"/><path class="cls-8" d="M329.83,92.03c-4.14,4.28-4.89-1.3-6.63-1.83-1.41-.43-10.49-1.04-11.74-.1-5.6,4.18,6.77,7.14,1.37,11.93-24.57-24.25-49.28-48.39-73.45-73.05l-3-1-92.56,90.05c.07-.08-1.95,0-.53-2.02s11.97-9.68,13.06-11.93c2.57-5.28-5.35.27-8.06.07-3.72-.28-2.96-2.45-3.66-2.87-4.07-2.41-3.19,4.17-3.87,4.71-1.07.84-6.36-1.58-6.94-.96-.21.23.54,3.19-1.43,5.08-1.04,1-9.69,5.26-11.57,4.93L236.33,0c31.78,30.05,62.48,61.22,93.5,92.03Z"/><path class="cls-11" d="M196.82,451.03c-1.31,1.2-30.52-7.57-34.51-8.98-59.82-21.21-117.88-78.04-136.98-139.02-1.11-3.55-7.54-28.85-6.5-29.99.84-.91,2.38,1.01,3,1.49,22.73,17.46,23,32.53,35.82,55.18,26.29,46.43,68.71,79.38,118.67,97.33,1.37,2.32,21.74,22.85,20.49,24h0Z"/><path class="cls-11" d="M455.83,273.04c-13.02,79.09-76.88,149.59-153.48,172.01-3.28.96-25.56,6.94-26.51,5.98-.9-.91.98-2.35,1.48-3,17.66-22.81,39.79-26.45,62.81-40.19,32.61-19.45,64.79-52.17,81.55-86.45,11.01-22.52,8.72-30.06,31.13-46.87,1-.75,1.27-1.95,3.01-1.48h0Z"/><path class="cls-4" d="M5.83,229.03c4.88-3.68,21.92-18.75,24.44-20.06,2.52-1.31,4.75-.56,6.51-1.49,2.07-1.1,6.8-6.18,8.02-5.43.2.12.25,2.55,1.58,2.87.74.18,7.3-2.41,7.43.61.09,2.03-9.09,2.55-4.98,7.5-6.11,5.98-12.39,11.48-18,18-2.35.15-3.9,1.65-4,4l173,175c-14.5-13.42-30.76-25.55-44.01-40.48-9.88-1.63-5.33-3.22-8.54-7.47-1.07-1.42-3.5-1.74-4.97-3.03-1.27-1.11-2.32-4.06-3.46-4.6-5.25-2.48-5.15,11.01-7.54,11.58-1.97.47-3.18-4.02-4.48-2C84.65,322.08,43.26,279.26.77,237.57c-2.78-3.27,2.66-6.73,5.06-8.54h0ZM131.83,357.05c-5.91.43,1.77-7.26-2.49-7.99-4.51-.78-5.74,15.54,2.49,7.99Z"/><path class="cls-6" d="M408.83,127.03c-17.26-24.12-38.13-46.47-63.98-61.52-24.04-13.99-49.55-16.85-67.52-40.48-.47-.62-2.41-2.16-1.49-3s21.04,3.54,24.2,4.29c52.47,12.5,95.71,47.3,124.8,91.7.13,3.46-.45,1.93-1.82.32-1.79-2.1-13.59-16.29-14.68-16.28-.54,0-6.71,5.66-9.49,4.98,2.93,4.01,4.37,8.65,6.57,12.91,1.14,2.2,2.8,5.88,3.42,7.08h-.01Z"/><path class="cls-5" d="M120.83,115.03c1.88.33,10.53-3.93,11.57-4.93,1.98-1.89,1.22-4.86,1.43-5.08.58-.62,5.87,1.81,6.94.96.69-.54-.19-7.12,3.87-4.71.7.41-.06,2.58,3.66,2.87,2.71.21,10.62-5.34,8.06-.07-1.09,2.25-11.7,10-13.06,11.93s.6,1.94.53,2.02c-28.75,32.35-63.84,64.55-95,95-4.11-4.95,5.06-5.47,4.98-7.5-.13-3.02-6.69-.43-7.43-.61-1.33-.32-1.39-2.75-1.58-2.87-1.22-.75-5.94,4.33-8.02,5.43-1.76.93-4.09.22-6.51,1.49s-19.55,16.38-24.44,20.06l115-114h0Z"/><path class="cls-1" d="M55.83,109.03c29.68-43.87,85.32-81.29,138.74-86.77.95-.1,3.13-.86,2.25,1.26-.56,1.34-18.61,19.24-20.48,20.52-6.68,4.58-21.39,8.14-29.86,12.14-21.78,10.27-47.79,28.74-63.64,46.86-3.62-3.49,2.08-7.11,2.05-7.53-.07-1.14-2.31-5.91-3.54-5.46-.69.25-1.47,2.02-2.49,2.36-2.33.77-5.18.21-7.93,2.23-3.11,2.29-10.43,12.86-13.06,14.94-1.91,1.5-1.95-.6-2.03-.53v-.02Z"/><path class="cls-13" d="M312.83,102.03c5.4-4.8-6.97-7.75-1.37-11.93,1.25-.93,10.33-.33,11.74.1,1.74.53,2.49,6.12,6.63,1.83,27.09,26.91,54.03,53.97,81,81-3.44,8.22-5.71-.33-7.03-1.47-8.74-7.57-6.58-1.83-7.98-.52-.37.35-8.12-6.77-8.95-1.52-.69,4.33,7.86,7.7,9.43,9.54,1.42,1.66,5.1,9.75,6.53,11.97-30.16-29.49-59.98-59.37-90-89h0Z"/><path class="cls-2" d="M55.83,109.03c.09-.06.12,2.04,2.03.53,2.63-2.07,9.95-12.65,13.06-14.94,2.75-2.02,5.6-1.46,7.93-2.23,1.02-.34,1.8-2.11,2.49-2.36,1.23-.45,3.46,4.32,3.54,5.46.03.42-5.67,4.05-2.05,7.53-12.6,14.4-23.99,33.05-32.17,50.33-3.47,7.33-6.16,18.88-9.99,25.01-1.21,1.94-19.01,20.1-20.35,20.65-2.03.84-1.5-1.47-1.47-2.46.59-18.19,22.16-77.1,36.98-87.53h0Z"/><path class="cls-3" d="M408.83,127.03c-.63-1.2-2.28-4.87-3.42-7.08-2.21-4.26-3.64-8.9-6.57-12.91,2.79.69,8.95-4.97,9.49-4.98,1.1-.01,12.89,14.18,14.68,16.28,1.37,1.61,1.95,3.14,1.82-.32,12.21,18.64,21.23,35.9,26.7,57.8.78,3.11,5.12,23.29,4.29,24.2s-2.38-1.01-3-1.49c-20.53-15.75-21.07-27.45-31.13-48.87-3.7-7.87-8.85-14.98-12.86-22.64h0Z"/><path class="cls-12" d="M131.83,357.05c-8.23,7.54-7-8.78-2.49-7.99,4.26.74-3.42,8.43,2.49,7.99Z"/><path class="cls-5" d="M30.83,231.03c-1.24,1.45-2.02,3.24-4,4,.1-2.35,1.65-3.85,4-4Z"/><path class="cls-12" d="M216.83,342.03c2.04-2.6,3.47-10.28,3.92-13.58.94-6.91.29-17.52,1.29-23.65.44-2.69,3.27-3.48,4.24-4.82,1.65-2.26-1.53-4.95,4.55-3.95-1.54,6.07,1.03,12.33-.06,18.43-.57,3.17-4.18,5.74-3.93,7.04.41,2.19,4.35-.17,4.78,2.19,1.7,10.27.44,22.82,2.22,32.86.35,1.95,1.93,2.32,1.99,2.47.54,1.52-1.49,4.7,1.99,3.99-.3-6.77.02-13.29,1.01-19.99,1.18-7.96,2.7-17.35,4.21-25.26.46-2.43,3.66-8.81,3.78-11.25.04-.87-4.4-.23-3.99-2.97.25-1.64,6.14-5.72,8.4-3.63,1.87,1.73-.86,12.19,5.6,11.11-.9,33.37,3.14,50.04-10.54,81.96-1.27,2.97-7.44,18.67-9.98,17.98-2.67-.73-16.27-35.39-17.5-40.42-2.6-10.61-1.75-17.85-1.98-28.52h0Z"/><path class="cls-5" d="M305.66,165.2c.89.52,9.21,17.35,9.16,18.38-.12,2.31-7.54,5.22-9.6,5.42-5.59.55-9.51-5.65-15.12-7.75-6.75-2.52-32.7-3.59-39.56-2.01-4.75,1.09-8.86,9.91-14.22,9.89-4.48-.02-10.44-9.28-15.93-10.16-8.23-1.31-32.66-.55-39.88,3.23-2.9,1.52-7.2,6.55-9.24,6.84-1.65.24-11.24-2.61-11.53-3.66-.66-2.43,8.06-19.82,10.58-20.37l135.33.17v.02Z"/><path class="cls-10" d="M235.83,359.03c-.05-.15-1.64-.52-1.99-2.47-1.79-10.04-.53-22.59-2.22-32.86-.44-2.36-4.38,0-4.78-2.19-.24-1.3,3.37-3.87,3.93-7.04,1.09-6.1-1.48-12.36.06-18.43-6.08-1-2.91,1.69-4.55,3.95-.97,1.33-3.8,2.12-4.24,4.82-1,6.13-.34,16.74-1.29,23.65-.45,3.31-1.88,10.99-3.92,13.58-1.12-51.99-2.59-103.99-2.99-156,1.97-1.99,20.52,8.97,20.04,13.45l-.09,107.09,2.04,52.46h0Z"/><path class="cls-9" d="M225.33,154.03c-.85-.15-4.01-1.57-4.22-2.43l4.72-66.09c-4.51-11.4-4.36-14.75,4.02-23.96,3.46-3.81,5.62-7.84,10.52-3.56,5.61,4.89,12.32,14.22,7.54,21.62l4.72,72.16c.36.81-.93,2.25-1.3,2.25-7.13,0-19.7,1.11-26,0h0Z"/><path class="cls-7" d="M238.83,343.03l1.52-145.98c1.82-2.29,16.84-12.74,18.48-11.01.75,41.7-.87,83.35-1.99,125-6.45,1.08-3.72-9.38-5.6-11.11-2.26-2.09-8.15,1.99-8.4,3.63-.41,2.74,4.03,2.1,3.99,2.97-.12,2.43-3.32,8.81-3.78,11.25-1.51,7.92-3.03,17.3-4.21,25.26h-.01Z"/></g></g></svg>